<svg xmlns="http://www.w3.org/2000/svg" xmlns:xlink="http://www.w3.org/1999/xlink" viewBox="0,0,256,256" width="100px" height="100px" fill-rule="nonzero"><g fill="none" fill-rule="nonzero" stroke="none" stroke-width="1" stroke-linecap="butt" stroke-linejoin="miter" stroke-miterlimit="10" stroke-dasharray="" stroke-dashoffset="0" font-family="none" font-weight="none" font-size="none" text-anchor="none" style="mix-blend-mode: normal"><g transform="scale(2.56,2.56)"><path d="M50,15c-19.32997,0 -35,15.67003 -35,35c0,19.32997 15.67003,35 35,35c19.32997,0 35,-15.67003 35,-35c0,-19.32997 -15.67003,-35 -35,-35z" fill="#18d16f"></path><path d="M64,47.5h-11.5v-12.5c0,-1.381 -1.119,-2.5 -2.5,-2.5c-1.381,0 -2.5,1.119 -2.5,2.5v12.5h-11.5c-1.381,0 -2.5,1.119 -2.5,2.5c0,1.381 1.119,2.5 2.5,2.5h11.5v12.5c0,1.381 1.119,2.5 2.5,2.5c1.381,0 2.5,-1.119 2.5,-2.5v-12.5h11.5c1.381,0 2.5,-1.119 2.5,-2.5c0,-1.381 -1.119,-2.5 -2.5,-2.5z" fill="#fefdef"></path><path d="M50,14c-19.851,0 -36,16.149 -36,36c0,19.851 16.149,36 36,36c19.851,0 36,-16.149 36,-36c0,-19.851 -16.149,-36 -36,-36zM50,84c-18.748,0 -34,-15.252 -34,-34c0,-18.748 15.252,-34 34,-34c18.748,0 34,15.252 34,34c0,18.748 -15.252,34 -34,34z" fill="#1f212b"></path><path d="M63.278,23.091c0.664,0.328 1.326,0.687 1.967,1.066c0.08,0.047 0.167,0.069 0.254,0.069c0.171,0 0.337,-0.088 0.431,-0.246c0.14,-0.238 0.062,-0.544 -0.176,-0.685c-0.663,-0.392 -1.347,-0.762 -2.033,-1.102c-0.248,-0.122 -0.547,-0.021 -0.67,0.227c-0.122,0.249 -0.02,0.549 0.227,0.671zM68.196,26.146c0.091,0.069 0.197,0.103 0.303,0.103c0.15,0 0.299,-0.067 0.397,-0.196c0.168,-0.219 0.126,-0.533 -0.093,-0.701c-0.333,-0.255 -0.673,-0.503 -1.017,-0.745c-0.226,-0.159 -0.538,-0.103 -0.697,0.123c-0.158,0.226 -0.104,0.538 0.123,0.697c0.333,0.232 0.662,0.472 0.984,0.719z" fill="#1f212b"></path><path d="M70.836,27.047c-0.203,-0.185 -0.521,-0.17 -0.706,0.034c-0.186,0.204 -0.17,0.521 0.034,0.706c6.251,5.677 9.836,13.774 9.836,22.213c0,16.542 -13.458,30 -30,30c-16.542,0 -30,-13.458 -30,-30c0,-16.542 13.458,-30 30,-30c3.549,0 7.024,0.614 10.328,1.825c0.259,0.098 0.547,-0.038 0.641,-0.297c0.095,-0.259 -0.038,-0.546 -0.297,-0.641c-3.415,-1.252 -7.005,-1.887 -10.672,-1.887c-17.093,0 -31,13.907 -31,31c0,17.093 13.907,31 31,31c17.093,0 31,-13.907 31,-31c0,-8.721 -3.705,-17.087 -10.164,-22.953z" fill="#1f212b"></path><path d="M53,47v-12c0,-1.654 -1.346,-3 -3,-3c-1.654,0 -3,1.346 -3,3v12h-11c-1.654,0 -3,1.346 -3,3c0,1.654 1.346,3 3,3h11v12c0,1.654 1.346,3 3,3c1.654,0 3,-1.346 3,-3v-12h11c1.654,0 3,-1.346 3,-3c0,-1.654 -1.346,-3 -3,-3zM66,50c0,1.103 -0.897,2 -2,2h-11.5c-0.276,0 -0.5,0.224 -0.5,0.5v12.5c0,1.103 -0.897,2 -2,2c-1.103,0 -2,-0.897 -2,-2v-12.5c0,-0.276 -0.224,-0.5 -0.5,-0.5h-11.5c-1.103,0 -2,-0.897 -2,-2c0,-1.103 0.897,-2 2,-2h11.5c0.276,0 0.5,-0.224 0.5,-0.5v-12.5c0,-1.103 0.897,-2 2,-2c1.103,0 2,0.897 2,2v12.5c0,0.276 0.224,0.5 0.5,0.5h11.5c1.103,0 2,0.897 2,2z" fill="#1f212b"></path></g></g></svg>