<svg width="34" height="34" viewBox="0 0 34 34" fill="none" xmlns="http://www.w3.org/2000/svg">
<rect x="0.395142" y="0.728516" width="33.2716" height="33.2716" rx="16.6358" fill="#FFD303"/>
<path d="M21.3441 17.9803C20.6047 20.3279 16.1685 22.0888 13.9504 17.9803" stroke="black" stroke-width="1.5" stroke-linecap="round"/>
<path fill-rule="evenodd" clip-rule="evenodd" d="M22.128 12.7556C21.6699 12.8238 21.3616 13.1415 21.3023 13.3296C21.149 13.8165 20.63 14.0869 20.1432 13.9335C19.6563 13.7802 19.3859 13.2612 19.5393 12.7744C19.8497 11.7888 20.8352 11.0793 21.8559 10.9274C22.9897 10.7586 24.1961 11.252 24.9309 12.613C25.1734 13.0621 25.0059 13.6228 24.5567 13.8653C24.1076 14.1078 23.5469 13.9402 23.3044 13.4911C22.9301 12.7978 22.4729 12.7043 22.128 12.7556Z" fill="black"/>
<path fill-rule="evenodd" clip-rule="evenodd" d="M12.2695 12.7556C11.8114 12.8238 11.5031 13.1415 11.4438 13.3296C11.2905 13.8165 10.7715 14.0869 10.2846 13.9335C9.79779 13.7802 9.52742 13.2612 9.68075 12.7744C9.99117 11.7888 10.9767 11.0793 11.9974 10.9274C13.1312 10.7586 14.3376 11.252 15.0724 12.613C15.3149 13.0621 15.1473 13.6228 14.6982 13.8653C14.249 14.1078 13.6883 13.9402 13.4459 13.4911C13.0716 12.7978 12.6144 12.7043 12.2695 12.7556Z" fill="black"/>
</svg>
