<svg width="34" height="34" viewBox="0 0 34 34" fill="none" xmlns="http://www.w3.org/2000/svg">
<rect y="0.728516" width="33.2716" height="33.2716" rx="16.6358" fill="#FFD303"/>
<path d="M21.2772 17.6562C17.6711 16.0701 13.8517 16.8934 12.0564 17.6328C11.8472 17.7189 11.7345 17.9481 11.7843 18.1688C13.3712 25.1939 21.2699 23.7626 21.5563 18.1061C21.566 17.9136 21.4536 17.7337 21.2772 17.6562Z" fill="black"/>
<path fill-rule="evenodd" clip-rule="evenodd" d="M21.7324 12.7556C21.2743 12.8238 20.966 13.1415 20.9067 13.3296C20.7534 13.8165 20.2344 14.0869 19.7475 13.9335C19.2607 13.7802 18.9903 13.2612 19.1436 12.7744C19.4541 11.7888 20.4396 11.0793 21.4603 10.9274C22.5941 10.7586 23.8005 11.252 24.5353 12.613C24.7778 13.0621 24.6102 13.6228 24.1611 13.8653C23.7119 14.1078 23.1512 13.9402 22.9088 13.4911C22.5345 12.7978 22.0773 12.7043 21.7324 12.7556Z" fill="black"/>
<path fill-rule="evenodd" clip-rule="evenodd" d="M11.8742 12.7556C11.4161 12.8238 11.1078 13.1415 11.0485 13.3296C10.8952 13.8165 10.3762 14.0869 9.88938 13.9335C9.40253 13.7802 9.13216 13.2612 9.28549 12.7744C9.5959 11.7888 10.5815 11.0793 11.6021 10.9274C12.7359 10.7586 13.9424 11.252 14.6771 12.613C14.9196 13.0621 14.7521 13.6228 14.3029 13.8653C13.8538 14.1078 13.2931 13.9402 13.0506 13.4911C12.6763 12.7978 12.2191 12.7043 11.8742 12.7556Z" fill="black"/>
</svg>
